<svg width="36" height="24" viewBox="0 0 36 24" fill="none" xmlns="http://www.w3.org/2000/svg">
<path d="M3 10.5C2.17157 10.5 1.5 11.1716 1.5 12C1.5 12.8284 2.17157 13.5 3 13.5V10.5ZM34.0607 13.0607C34.6464 12.4749 34.6464 11.5251 34.0607 10.9393L24.5147 1.3934C23.9289 0.807612 22.9792 0.807612 22.3934 1.3934C21.8076 1.97918 21.8076 2.92893 22.3934 3.51472L30.8787 12L22.3934 20.4853C21.8076 21.0711 21.8076 22.0208 22.3934 22.6066C22.9792 23.1924 23.9289 23.1924 24.5147 22.6066L34.0607 13.0607ZM3 13.5H33V10.5H3V13.5Z" fill="black"/>
</svg>
