<svg width="48" height="48" viewBox="0 0 48 48" fill="none" xmlns="http://www.w3.org/2000/svg">
<g clip-path="url(#clip0_212_25)">
<path d="M3 22.0329V2H4.02211V22.0329H3ZM5.04422 22.0329V2H6.06632V22.0329H5.04422ZM9.13265 22.0329V2H11.1769V22.0329H9.13265ZM9.88219 30.5553H7.32692L6.54331 32.8642H5.65748L8.55345 24.851H8.65566L11.5857 32.8642H10.6658L9.88219 30.5553ZM9.6437 29.8762L8.62159 26.8883L7.56541 29.8762H9.6437Z" fill="black"/>
<path d="M14.2458 22.0329V2H16.2901V22.0329H14.2458ZM19.3564 22.0329V2H20.3785V22.0329H19.3564ZM21.4006 22.0329V2H24.4669V22.0329H21.4006ZM17.4144 24.9869H19.7312C20.6397 24.9869 21.2984 25.1906 21.7072 25.598C22.1388 25.9828 22.3546 26.5374 22.3546 27.2618C22.3546 27.7145 22.2069 28.1446 21.9117 28.552C21.6164 28.9595 21.2303 29.2311 20.7533 29.3669L22.5931 32.8642H21.605L19.8334 29.4009H18.3002V32.8642H17.4144V24.9869ZM19.8334 28.6199C20.3785 28.6199 20.7873 28.4954 21.0599 28.2464C21.3097 28.0201 21.4347 27.6919 21.4347 27.2618C21.4347 26.8317 21.3097 26.4808 21.0599 26.2092C20.7873 25.9602 20.3785 25.8357 19.8334 25.8357H18.3002V28.6199H19.8334Z" fill="black"/>
<path d="M25.4917 22.0329V2H27.5359V22.0329H25.4917ZM28.558 22.0329V2H31.6243V22.0329H28.558ZM34.6907 22.0329V2H35.7128V22.0329H34.6907ZM30.5682 25.7678H28.3536V24.9869H33.8048V25.7678H31.4881V32.8642H30.5682V25.7678Z" fill="black"/>
<path d="M36.7375 22.0329V2H37.7596V22.0329H36.7375ZM40.826 22.0329V2H41.8481V22.0329H40.826ZM42.8702 22.0329V2H44.9144V22.0329H42.8702ZM39.8039 24.9869H42.0525C42.9156 24.9869 43.5629 25.1566 43.9945 25.4962C44.4488 25.8357 44.6759 26.3111 44.6759 26.9222C44.6759 27.307 44.5737 27.6579 44.3693 27.9748C44.1421 28.2917 43.8469 28.5181 43.4835 28.6539C43.9377 28.8123 44.3011 29.0727 44.5737 29.4348C44.8463 29.8196 44.9825 30.2271 44.9825 30.6572C44.9825 31.3363 44.7327 31.8795 44.233 32.287C43.756 32.6718 43.0178 32.8642 42.0184 32.8642H39.8039V24.9869ZM41.9162 28.2464C43.1655 28.2464 43.7901 27.8277 43.7901 26.9901C43.7901 26.628 43.6424 26.3337 43.3472 26.1073C43.0746 25.8583 42.6431 25.7338 42.0525 25.7338H40.6556V28.2464H41.9162ZM42.1888 32.0832C43.4153 32.0832 44.0286 31.5853 44.0286 30.5893C44.0286 29.5254 43.3358 28.9934 41.9503 28.9934H40.6556V32.0832H42.1888Z" fill="black"/>
<path d="M47.9834 22.0329V2H49.0055V22.0329H47.9834ZM52.0718 22.0329V2H55.1381V22.0329H52.0718ZM56.1603 22.0329V2H58.2045V22.0329H56.1603ZM53.605 33C52.6964 33 52.0037 32.6491 51.5267 31.9474C51.027 31.2457 50.7771 30.2497 50.7771 28.9595C50.7771 27.7145 51.027 26.7298 51.5267 26.0055C52.0264 25.3038 52.7192 24.9529 53.605 24.9529C54.4908 24.9529 55.1836 25.3038 55.6833 26.0055C56.183 26.7298 56.4328 27.7145 56.4328 28.9595C56.4328 30.2497 56.183 31.2457 55.6833 31.9474C55.2063 32.6491 54.5135 33 53.605 33ZM53.605 32.2191C54.2182 32.2191 54.6839 31.9474 55.0019 31.4042C55.3426 30.8383 55.5129 30.0234 55.5129 28.9595C55.5129 27.9635 55.3426 27.1712 55.0019 26.5827C54.6612 26.0168 54.1955 25.7338 53.605 25.7338C53.0144 25.7338 52.5488 26.0168 52.2081 26.5827C51.8674 27.1712 51.697 27.9635 51.697 28.9595C51.697 30.0234 51.856 30.8383 52.174 31.4042C52.5147 31.9474 52.9917 32.2191 53.605 32.2191Z" fill="black"/>
<path d="M59.2292 22.0329V2H60.2513V22.0329H59.2292ZM61.2735 22.0329V2H62.2956V22.0329H61.2735ZM65.3619 22.0329V2H67.4061V22.0329H65.3619ZM66.1114 30.5553H63.5562L62.7725 32.8642H61.8867L64.7827 24.851H64.8849L67.8149 32.8642H66.895L66.1114 30.5553ZM65.8729 29.8762L64.8508 26.8883L63.7946 29.8762H65.8729Z" fill="black"/>
<path d="M70.4751 22.0329V2H72.5193V22.0329H70.4751ZM75.5856 22.0329V2H76.6077V22.0329H75.5856ZM77.6298 22.0329V2H80.6962V22.0329H77.6298ZM73.6436 24.9869H75.9604C76.8689 24.9869 77.5276 25.1906 77.9365 25.598C78.368 25.9828 78.5838 26.5374 78.5838 27.2618C78.5838 27.7145 78.4362 28.1446 78.1409 28.552C77.8456 28.9595 77.4595 29.2311 76.9825 29.3669L78.8223 32.8642H77.8343L76.0626 29.4009H74.5294V32.8642H73.6436V24.9869ZM76.0626 28.6199C76.6077 28.6199 77.0166 28.4954 77.2891 28.2464C77.539 28.0201 77.6639 27.6919 77.6639 27.2618C77.6639 26.8317 77.539 26.4808 77.2891 26.2092C77.0166 25.9602 76.6077 25.8357 76.0626 25.8357H74.5294V28.6199H76.0626Z" fill="black"/>
<path d="M81.7209 22.0329V2H82.743V22.0329H81.7209ZM83.7651 22.0329V2H85.8094V22.0329H83.7651ZM88.8757 22.0329V2H89.8978V22.0329H88.8757ZM84.8554 24.9869H86.6952C87.3539 24.9869 87.8649 25.0774 88.2284 25.2585C88.6145 25.4396 88.9438 25.7112 89.2164 26.0734C89.7388 26.7525 90 27.7145 90 28.9595C89.9546 30.2497 89.6593 31.2231 89.1142 31.8795C88.569 32.5586 87.7173 32.8868 86.5589 32.8642H84.8554V24.9869ZM86.4908 32.1851C88.2397 32.1851 89.1142 31.1325 89.1142 29.0274C89.1142 27.9635 88.9211 27.1486 88.535 26.5827C88.1261 26.0168 87.4902 25.7338 86.627 25.7338H85.7071V32.1851H86.4908Z" fill="black"/>
</g>
<g clip-path="url(#clip1_212_25)">
<path d="M8 22.0329V2H9.02211V22.0329H8ZM10.0442 22.0329V2H11.0663V22.0329H10.0442ZM14.1326 22.0329V2H16.1769V22.0329H14.1326ZM14.8822 30.5553H12.3269L11.5433 32.8642H10.6575L13.5535 24.851H13.6557L16.5857 32.8642H15.6658L14.8822 30.5553ZM14.6437 29.8762L13.6216 26.8883L12.5654 29.8762H14.6437Z" fill="black"/>
<path d="M19.2458 22.0329V2H21.2901V22.0329H19.2458ZM24.3564 22.0329V2H25.3785V22.0329H24.3564ZM26.4006 22.0329V2H29.4669V22.0329H26.4006ZM22.4144 24.9869H24.7312C25.6397 24.9869 26.2984 25.1906 26.7072 25.598C27.1388 25.9828 27.3546 26.5374 27.3546 27.2618C27.3546 27.7145 27.2069 28.1446 26.9117 28.552C26.6164 28.9595 26.2303 29.2311 25.7533 29.3669L27.5931 32.8642H26.605L24.8334 29.4009H23.3002V32.8642H22.4144V24.9869ZM24.8334 28.6199C25.3785 28.6199 25.7873 28.4954 26.0599 28.2464C26.3097 28.0201 26.4347 27.6919 26.4347 27.2618C26.4347 26.8317 26.3097 26.4808 26.0599 26.2092C25.7873 25.9602 25.3785 25.8357 24.8334 25.8357H23.3002V28.6199H24.8334Z" fill="black"/>
<path d="M30.4917 22.0329V2H32.5359V22.0329H30.4917ZM33.558 22.0329V2H36.6243V22.0329H33.558ZM39.6907 22.0329V2H40.7128V22.0329H39.6907ZM35.5682 25.7678H33.3536V24.9869H38.8048V25.7678H36.4881V32.8642H35.5682V25.7678Z" fill="black"/>
<path d="M41.7375 22.0329V2H42.7596V22.0329H41.7375ZM45.826 22.0329V2H46.8481V22.0329H45.826ZM47.8702 22.0329V2H49.9144V22.0329H47.8702ZM44.8039 24.9869H47.0525C47.9156 24.9869 48.5629 25.1566 48.9945 25.4962C49.4488 25.8357 49.6759 26.3111 49.6759 26.9222C49.6759 27.307 49.5737 27.6579 49.3693 27.9748C49.1421 28.2917 48.8469 28.5181 48.4835 28.6539C48.9377 28.8123 49.3011 29.0727 49.5737 29.4348C49.8463 29.8196 49.9825 30.2271 49.9825 30.6572C49.9825 31.3363 49.7327 31.8795 49.233 32.287C48.756 32.6718 48.0178 32.8642 47.0184 32.8642H44.8039V24.9869ZM46.9162 28.2464C48.1655 28.2464 48.7901 27.8277 48.7901 26.9901C48.7901 26.628 48.6424 26.3337 48.3472 26.1073C48.0746 25.8583 47.6431 25.7338 47.0525 25.7338H45.6556V28.2464H46.9162ZM47.1888 32.0832C48.4153 32.0832 49.0286 31.5853 49.0286 30.5893C49.0286 29.5254 48.3358 28.9934 46.9503 28.9934H45.6556V32.0832H47.1888Z" fill="black"/>
<path d="M52.9834 22.0329V2H54.0055V22.0329H52.9834ZM57.0718 22.0329V2H60.1381V22.0329H57.0718ZM61.1603 22.0329V2H63.2045V22.0329H61.1603ZM58.605 33C57.6964 33 57.0037 32.6491 56.5267 31.9474C56.027 31.2457 55.7771 30.2497 55.7771 28.9595C55.7771 27.7145 56.027 26.7298 56.5267 26.0055C57.0264 25.3038 57.7192 24.9529 58.605 24.9529C59.4908 24.9529 60.1836 25.3038 60.6833 26.0055C61.183 26.7298 61.4328 27.7145 61.4328 28.9595C61.4328 30.2497 61.183 31.2457 60.6833 31.9474C60.2063 32.6491 59.5135 33 58.605 33ZM58.605 32.2191C59.2182 32.2191 59.6839 31.9474 60.0019 31.4042C60.3426 30.8383 60.5129 30.0234 60.5129 28.9595C60.5129 27.9635 60.3426 27.1712 60.0019 26.5827C59.6612 26.0168 59.1955 25.7338 58.605 25.7338C58.0144 25.7338 57.5488 26.0168 57.2081 26.5827C56.8674 27.1712 56.697 27.9635 56.697 28.9595C56.697 30.0234 56.856 30.8383 57.174 31.4042C57.5147 31.9474 57.9917 32.2191 58.605 32.2191Z" fill="black"/>
<path d="M64.2292 22.0329V2H65.2513V22.0329H64.2292ZM66.2735 22.0329V2H67.2956V22.0329H66.2735ZM70.3619 22.0329V2H72.4061V22.0329H70.3619ZM71.1114 30.5553H68.5562L67.7725 32.8642H66.8867L69.7827 24.851H69.8849L72.8149 32.8642H71.895L71.1114 30.5553ZM70.8729 29.8762L69.8508 26.8883L68.7946 29.8762H70.8729Z" fill="black"/>
<path d="M75.4751 22.0329V2H77.5193V22.0329H75.4751ZM80.5856 22.0329V2H81.6077V22.0329H80.5856ZM82.6298 22.0329V2H85.6962V22.0329H82.6298ZM78.6436 24.9869H80.9604C81.8689 24.9869 82.5276 25.1906 82.9365 25.598C83.368 25.9828 83.5838 26.5374 83.5838 27.2618C83.5838 27.7145 83.4362 28.1446 83.1409 28.552C82.8456 28.9595 82.4595 29.2311 81.9825 29.3669L83.8223 32.8642H82.8343L81.0626 29.4009H79.5294V32.8642H78.6436V24.9869ZM81.0626 28.6199C81.6077 28.6199 82.0166 28.4954 82.2891 28.2464C82.539 28.0201 82.6639 27.6919 82.6639 27.2618C82.6639 26.8317 82.539 26.4808 82.2891 26.2092C82.0166 25.9602 81.6077 25.8357 81.0626 25.8357H79.5294V28.6199H81.0626Z" fill="black"/>
<path d="M86.7209 22.0329V2H87.743V22.0329H86.7209ZM88.7651 22.0329V2H90.8094V22.0329H88.7651ZM93.8757 22.0329V2H94.8978V22.0329H93.8757ZM89.8554 24.9869H91.6952C92.3539 24.9869 92.8649 25.0774 93.2284 25.2585C93.6145 25.4396 93.9438 25.7112 94.2164 26.0734C94.7388 26.7525 95 27.7145 95 28.9595C94.9546 30.2497 94.6593 31.2231 94.1142 31.8795C93.569 32.5586 92.7173 32.8868 91.5589 32.8642H89.8554V24.9869ZM91.4908 32.1851C93.2397 32.1851 94.1142 31.1325 94.1142 29.0274C94.1142 27.9635 93.9211 27.1486 93.535 26.5827C93.1261 26.0168 92.4902 25.7338 91.627 25.7338H90.7071V32.1851H91.4908Z" fill="black"/>
</g>
<g clip-path="url(#clip2_212_25)">
<path d="M-31 33.448V16H-30.0836V33.448H-31ZM-29.1673 33.448V16H-28.2509V33.448H-29.1673ZM-25.5018 33.448V16H-23.669V33.448H-25.5018ZM-24.8298 40.8708H-27.1207L-27.8232 42.8817H-28.6174L-26.021 35.9025H-25.9294L-23.3025 42.8817H-24.1272L-24.8298 40.8708ZM-25.0436 40.2793L-25.96 37.6769L-26.9069 40.2793H-25.0436Z" fill="black"/>
<path d="M-20.9175 33.448V16H-19.0848V33.448H-20.9175ZM-16.3357 33.448V16H-15.4193V33.448H-16.3357ZM-14.5029 33.448V16H-11.7538V33.448H-14.5029ZM-18.0768 36.0208H-15.9996C-15.1851 36.0208 -14.5945 36.1982 -14.228 36.5531C-13.8411 36.8883 -13.6476 37.3713 -13.6476 38.0022C-13.6476 38.3965 -13.78 38.7711 -14.0447 39.126C-14.3095 39.4808 -14.6556 39.7174 -15.0833 39.8357L-13.4338 42.8817H-14.3196L-15.908 39.8653H-17.2826V42.8817H-18.0768V36.0208ZM-15.908 39.1851C-15.4193 39.1851 -15.0527 39.0767 -14.8084 38.8598C-14.5844 38.6627 -14.4724 38.3768 -14.4724 38.0022C-14.4724 37.6276 -14.5844 37.322 -14.8084 37.0854C-15.0527 36.8686 -15.4193 36.7601 -15.908 36.7601H-17.2826V39.1851H-15.908Z" fill="black"/>
<path d="M-10.835 33.448V16H-9.00229V33.448H-10.835ZM-8.08591 33.448V16H-5.3368V33.448H-8.08591ZM-2.58768 33.448V16H-1.67131V33.448H-2.58768ZM-6.28372 36.701H-8.26919V36.0208H-3.38187V36.701H-5.45898V42.8817H-6.28372V36.701Z" fill="black"/>
<path d="M-0.752549 33.448V16H0.163824V33.448H-0.752549ZM2.91294 33.448V16H3.82931V33.448H2.91294ZM4.74569 33.448V16H6.57843V33.448H4.74569ZM1.99657 36.0208H4.01259C4.78641 36.0208 5.36678 36.1687 5.7537 36.4644C6.16097 36.7601 6.36461 37.1742 6.36461 37.7065C6.36461 38.0416 6.27297 38.3472 6.0897 38.6232C5.88606 38.8992 5.62133 39.0964 5.29551 39.2147C5.70279 39.3527 6.02861 39.5794 6.27297 39.8949C6.51734 40.23 6.63952 40.5849 6.63952 40.9595C6.63952 41.5509 6.41552 42.0241 5.96752 42.379C5.53988 42.7141 4.87805 42.8817 3.98204 42.8817H1.99657V36.0208ZM3.8904 38.8598C5.01042 38.8598 5.57042 38.4951 5.57042 37.7656C5.57042 37.4502 5.43806 37.1939 5.17333 36.9967C4.92896 36.7798 4.54205 36.6714 4.01259 36.6714H2.76021V38.8598H3.8904ZM4.13477 42.2015C5.23442 42.2015 5.78424 41.7678 5.78424 40.9003C5.78424 39.9737 5.16315 39.5104 3.92095 39.5104H2.76021V42.2015H4.13477Z" fill="black"/>
<path d="M9.32993 33.448V16H10.2463V33.448H9.32993ZM12.9954 33.448V16H15.7445V33.448H12.9954ZM16.6609 33.448V16H18.4937V33.448H16.6609ZM14.37 43C13.5554 43 12.9343 42.6944 12.5067 42.0832C12.0587 41.4721 11.8347 40.6046 11.8347 39.4808C11.8347 38.3965 12.0587 37.5389 12.5067 36.908C12.9547 36.2968 13.5758 35.9912 14.37 35.9912C15.1642 35.9912 15.7853 36.2968 16.2333 36.908C16.6813 37.5389 16.9053 38.3965 16.9053 39.4808C16.9053 40.6046 16.6813 41.4721 16.2333 42.0832C15.8056 42.6944 15.1845 43 14.37 43ZM14.37 42.3198C14.9198 42.3198 15.3373 42.0832 15.6224 41.6101C15.9278 41.1172 16.0805 40.4074 16.0805 39.4808C16.0805 38.6134 15.9278 37.9233 15.6224 37.4107C15.3169 36.9179 14.8994 36.6714 14.37 36.6714C13.8405 36.6714 13.4231 36.9179 13.1176 37.4107C12.8121 37.9233 12.6594 38.6134 12.6594 39.4808C12.6594 40.4074 12.802 41.1172 13.0871 41.6101C13.3925 42.0832 13.8202 42.3198 14.37 42.3198Z" fill="black"/>
<path d="M19.4124 33.448V16H20.3288V33.448H19.4124ZM21.2452 33.448V16H22.1615V33.448H21.2452ZM24.9107 33.448V16H26.7434V33.448H24.9107ZM25.5827 40.8708H23.2917L22.5892 42.8817H21.795L24.3914 35.9025H24.483L27.1099 42.8817H26.2852L25.5827 40.8708ZM25.3688 40.2793L24.4525 37.6769L23.5056 40.2793H25.3688Z" fill="black"/>
<path d="M29.4949 33.448V16H31.3276V33.448H29.4949ZM34.0768 33.448V16H34.9931V33.448H34.0768ZM35.9095 33.448V16H38.6586V33.448H35.9095ZM32.3357 36.0208H34.4128C35.2273 36.0208 35.8179 36.1982 36.1844 36.5531C36.5713 36.8883 36.7648 37.3713 36.7648 38.0022C36.7648 38.3965 36.6324 38.7711 36.3677 39.126C36.103 39.4808 35.7568 39.7174 35.3291 39.8357L36.9786 42.8817H36.0928L34.5044 39.8653H33.1298V42.8817H32.3357V36.0208ZM34.5044 39.1851C34.9931 39.1851 35.3597 39.0767 35.6041 38.8598C35.8281 38.6627 35.9401 38.3768 35.9401 38.0022C35.9401 37.6276 35.8281 37.322 35.6041 37.0854C35.3597 36.8686 34.9931 36.7601 34.5044 36.7601H33.1298V39.1851H34.5044Z" fill="black"/>
<path d="M39.5774 33.448V16H40.4938V33.448H39.5774ZM41.4101 33.448V16H43.2429V33.448H41.4101ZM45.992 33.448V16H46.9084V33.448H45.992ZM42.3876 36.0208H44.0371C44.6276 36.0208 45.0858 36.0997 45.4116 36.2574C45.7578 36.4151 46.0531 36.6517 46.2975 36.9671C46.7658 37.5586 47 38.3965 47 39.4808C46.9593 40.6046 46.6945 41.4524 46.2058 42.0241C45.7171 42.6156 44.9534 42.9014 43.9149 42.8817H42.3876V36.0208ZM43.8538 42.2903C45.4218 42.2903 46.2058 41.3735 46.2058 39.54C46.2058 38.6134 46.0327 37.9036 45.6865 37.4107C45.32 36.9179 44.7498 36.6714 43.976 36.6714H43.1512V42.2903H43.8538Z" fill="black"/>
</g>
<defs>
<clipPath id="clip0_212_25">
<rect width="42" height="19" fill="white" transform="translate(3 2)"/>
</clipPath>
<clipPath id="clip1_212_25">
<rect width="29" height="9" fill="white" transform="translate(10 24)"/>
</clipPath>
<clipPath id="clip2_212_25">
<rect width="48" height="9" fill="white" transform="translate(0 36)"/>
</clipPath>
</defs>
</svg>
