<svg width="48" height="48" viewBox="0 0 48 48" fill="none" xmlns="http://www.w3.org/2000/svg">
<path d="M3 33L6.28456 35H41.44L45 33" stroke="black" stroke-width="3"/>
<rect width="4" height="4" transform="translate(10 39)" fill="black"/>
<rect width="4" height="4" transform="translate(33 39)" fill="black"/>
<g clip-path="url(#clip0_212_17)">
<path d="M3 27.0329V7H4.02211V27.0329H3ZM5.04422 27.0329V7H6.06632V27.0329H5.04422ZM9.13265 27.0329V7H11.1769V27.0329H9.13265ZM9.88219 35.5553H7.32692L6.54331 37.8642H5.65748L8.55345 29.851H8.65566L11.5857 37.8642H10.6658L9.88219 35.5553ZM9.6437 34.8762L8.62159 31.8883L7.56541 34.8762H9.6437Z" fill="black"/>
<path d="M14.2458 27.0329V7H16.2901V27.0329H14.2458ZM19.3564 27.0329V7H20.3785V27.0329H19.3564ZM21.4006 27.0329V7H24.4669V27.0329H21.4006ZM17.4144 29.9869H19.7312C20.6397 29.9869 21.2984 30.1906 21.7072 30.598C22.1388 30.9828 22.3546 31.5374 22.3546 32.2618C22.3546 32.7145 22.2069 33.1446 21.9117 33.552C21.6164 33.9595 21.2303 34.2311 20.7533 34.3669L22.5931 37.8642H21.605L19.8334 34.4009H18.3002V37.8642H17.4144V29.9869ZM19.8334 33.6199C20.3785 33.6199 20.7873 33.4954 21.0599 33.2464C21.3097 33.0201 21.4347 32.6919 21.4347 32.2618C21.4347 31.8317 21.3097 31.4808 21.0599 31.2092C20.7873 30.9602 20.3785 30.8357 19.8334 30.8357H18.3002V33.6199H19.8334Z" fill="black"/>
<path d="M25.4917 27.0329V7H27.5359V27.0329H25.4917ZM28.558 27.0329V7H31.6243V27.0329H28.558ZM34.6907 27.0329V7H35.7128V27.0329H34.6907ZM30.5682 30.7678H28.3536V29.9869H33.8048V30.7678H31.4881V37.8642H30.5682V30.7678Z" fill="black"/>
<path d="M36.7375 27.0329V7H37.7596V27.0329H36.7375ZM40.826 27.0329V7H41.8481V27.0329H40.826ZM42.8702 27.0329V7H44.9144V27.0329H42.8702ZM39.8039 29.9869H42.0525C42.9156 29.9869 43.5629 30.1566 43.9945 30.4962C44.4488 30.8357 44.6759 31.3111 44.6759 31.9222C44.6759 32.307 44.5737 32.6579 44.3693 32.9748C44.1421 33.2917 43.8469 33.5181 43.4835 33.6539C43.9377 33.8123 44.3011 34.0727 44.5737 34.4348C44.8463 34.8196 44.9825 35.2271 44.9825 35.6572C44.9825 36.3363 44.7327 36.8795 44.233 37.287C43.756 37.6718 43.0178 37.8642 42.0184 37.8642H39.8039V29.9869ZM41.9162 33.2464C43.1655 33.2464 43.7901 32.8277 43.7901 31.9901C43.7901 31.628 43.6424 31.3337 43.3472 31.1073C43.0746 30.8583 42.6431 30.7338 42.0525 30.7338H40.6556V33.2464H41.9162ZM42.1888 37.0832C43.4153 37.0832 44.0286 36.5853 44.0286 35.5893C44.0286 34.5254 43.3358 33.9934 41.9503 33.9934H40.6556V37.0832H42.1888Z" fill="black"/>
<path d="M47.9834 27.0329V7H49.0055V27.0329H47.9834ZM52.0718 27.0329V7H55.1381V27.0329H52.0718ZM56.1603 27.0329V7H58.2045V27.0329H56.1603ZM53.605 38C52.6964 38 52.0037 37.6491 51.5267 36.9474C51.027 36.2457 50.7771 35.2497 50.7771 33.9595C50.7771 32.7145 51.027 31.7298 51.5267 31.0055C52.0264 30.3038 52.7192 29.9529 53.605 29.9529C54.4908 29.9529 55.1836 30.3038 55.6833 31.0055C56.183 31.7298 56.4328 32.7145 56.4328 33.9595C56.4328 35.2497 56.183 36.2457 55.6833 36.9474C55.2063 37.6491 54.5135 38 53.605 38ZM53.605 37.2191C54.2182 37.2191 54.6839 36.9474 55.0019 36.4042C55.3426 35.8383 55.5129 35.0234 55.5129 33.9595C55.5129 32.9635 55.3426 32.1712 55.0019 31.5827C54.6612 31.0168 54.1955 30.7338 53.605 30.7338C53.0144 30.7338 52.5488 31.0168 52.2081 31.5827C51.8674 32.1712 51.697 32.9635 51.697 33.9595C51.697 35.0234 51.856 35.8383 52.174 36.4042C52.5147 36.9474 52.9917 37.2191 53.605 37.2191Z" fill="black"/>
<path d="M59.2292 27.0329V7H60.2513V27.0329H59.2292ZM61.2735 27.0329V7H62.2956V27.0329H61.2735ZM65.3619 27.0329V7H67.4061V27.0329H65.3619ZM66.1114 35.5553H63.5562L62.7725 37.8642H61.8867L64.7827 29.851H64.8849L67.8149 37.8642H66.895L66.1114 35.5553ZM65.8729 34.8762L64.8508 31.8883L63.7946 34.8762H65.8729Z" fill="black"/>
<path d="M70.4751 27.0329V7H72.5193V27.0329H70.4751ZM75.5856 27.0329V7H76.6077V27.0329H75.5856ZM77.6298 27.0329V7H80.6962V27.0329H77.6298ZM73.6436 29.9869H75.9604C76.8689 29.9869 77.5276 30.1906 77.9365 30.598C78.368 30.9828 78.5838 31.5374 78.5838 32.2618C78.5838 32.7145 78.4362 33.1446 78.1409 33.552C77.8456 33.9595 77.4595 34.2311 76.9825 34.3669L78.8223 37.8642H77.8343L76.0626 34.4009H74.5294V37.8642H73.6436V29.9869ZM76.0626 33.6199C76.6077 33.6199 77.0166 33.4954 77.2891 33.2464C77.539 33.0201 77.6639 32.6919 77.6639 32.2618C77.6639 31.8317 77.539 31.4808 77.2891 31.2092C77.0166 30.9602 76.6077 30.8357 76.0626 30.8357H74.5294V33.6199H76.0626Z" fill="black"/>
<path d="M81.7209 27.0329V7H82.743V27.0329H81.7209ZM83.7651 27.0329V7H85.8094V27.0329H83.7651ZM88.8757 27.0329V7H89.8978V27.0329H88.8757ZM84.8554 29.9869H86.6952C87.3539 29.9869 87.8649 30.0774 88.2284 30.2585C88.6145 30.4396 88.9438 30.7112 89.2164 31.0734C89.7388 31.7525 90 32.7145 90 33.9595C89.9546 35.2497 89.6593 36.2231 89.1142 36.8795C88.569 37.5586 87.7173 37.8868 86.5589 37.8642H84.8554V29.9869ZM86.4908 37.1851C88.2397 37.1851 89.1142 36.1325 89.1142 34.0274C89.1142 32.9635 88.9211 32.1486 88.535 31.5827C88.1261 31.0168 87.4902 30.7338 86.627 30.7338H85.7071V37.1851H86.4908Z" fill="black"/>
</g>
<defs>
<clipPath id="clip0_212_17">
<rect width="42" height="21" fill="white" transform="translate(3 7)"/>
</clipPath>
</defs>
</svg>
